<mxfile host="app.diagrams.net" agent="Mozilla/5.0 (Windows NT 10.0; Win64; x64) AppleWebKit/537.36 (KHTML, like Gecko) Chrome/129.0.0.0 Safari/537.36" version="24.7.17">
  <diagram name="Página-1" id="l4jYEKxpfNtmVfBvT1T7">
    <mxGraphModel dx="954" dy="558" grid="1" gridSize="10" guides="1" tooltips="1" connect="1" arrows="1" fold="1" page="1" pageScale="1" pageWidth="827" pageHeight="1169" math="0" shadow="0">
      <root>
        <mxCell id="0" />
        <mxCell id="1" parent="0" />
        <mxCell id="Jrcfv6droCvZTq4FruAK-2" value="Oficina" style="whiteSpace=wrap;html=1;align=center;fillColor=#f0a30a;strokeColor=#BD7000;fontColor=#000000;" vertex="1" parent="1">
          <mxGeometry x="215" y="170" width="100" height="40" as="geometry" />
        </mxCell>
        <mxCell id="Jrcfv6droCvZTq4FruAK-5" value="Es" style="shape=rhombus;perimeter=rhombusPerimeter;whiteSpace=wrap;html=1;align=center;fillColor=#76608a;fontColor=#ffffff;strokeColor=#432D57;" vertex="1" parent="1">
          <mxGeometry x="220" y="545" width="90" height="40" as="geometry" />
        </mxCell>
        <mxCell id="Jrcfv6droCvZTq4FruAK-6" value="Cliente" style="whiteSpace=wrap;html=1;align=center;fillColor=#f0a30a;strokeColor=#BD7000;fontColor=#000000;" vertex="1" parent="1">
          <mxGeometry x="590" y="410" width="100" height="40" as="geometry" />
        </mxCell>
        <mxCell id="Jrcfv6droCvZTq4FruAK-7" value="Pedido" style="whiteSpace=wrap;html=1;align=center;fillColor=#f0a30a;strokeColor=#BD7000;fontColor=#000000;" vertex="1" parent="1">
          <mxGeometry x="409" y="520" width="100" height="40" as="geometry" />
        </mxCell>
        <mxCell id="Jrcfv6droCvZTq4FruAK-8" value="Línea de pedido" style="shape=ext;margin=3;double=1;whiteSpace=wrap;html=1;align=center;fillColor=#f0a30a;fontColor=#000000;strokeColor=#BD7000;" vertex="1" parent="1">
          <mxGeometry x="180" y="630" width="100" height="40" as="geometry" />
        </mxCell>
        <mxCell id="Jrcfv6droCvZTq4FruAK-9" value="Gama" style="whiteSpace=wrap;html=1;align=center;fillColor=#f0a30a;strokeColor=#BD7000;fontColor=#000000;" vertex="1" parent="1">
          <mxGeometry x="670" y="830" width="100" height="40" as="geometry" />
        </mxCell>
        <mxCell id="Jrcfv6droCvZTq4FruAK-10" value="Empleado" style="whiteSpace=wrap;html=1;align=center;fillColor=#f0a30a;strokeColor=#BD7000;fontColor=#000000;" vertex="1" parent="1">
          <mxGeometry x="215" y="410" width="100" height="40" as="geometry" />
        </mxCell>
        <mxCell id="Jrcfv6droCvZTq4FruAK-11" value="Producto" style="whiteSpace=wrap;html=1;align=center;fillColor=#f0a30a;strokeColor=#BD7000;fontColor=#000000;" vertex="1" parent="1">
          <mxGeometry x="180" y="830" width="100" height="40" as="geometry" />
        </mxCell>
        <mxCell id="Jrcfv6droCvZTq4FruAK-12" value="Representa" style="shape=rhombus;perimeter=rhombusPerimeter;whiteSpace=wrap;html=1;align=center;fillColor=#76608a;fontColor=#ffffff;strokeColor=#432D57;" vertex="1" parent="1">
          <mxGeometry x="414" y="410" width="90" height="40" as="geometry" />
        </mxCell>
        <mxCell id="Jrcfv6droCvZTq4FruAK-13" value="Tiene" style="shape=rhombus;perimeter=rhombusPerimeter;whiteSpace=wrap;html=1;align=center;fillColor=#76608a;fontColor=#ffffff;strokeColor=#432D57;" vertex="1" parent="1">
          <mxGeometry x="220" y="290" width="90" height="40" as="geometry" />
        </mxCell>
        <mxCell id="Jrcfv6droCvZTq4FruAK-14" value="Realiza" style="shape=rhombus;perimeter=rhombusPerimeter;whiteSpace=wrap;html=1;align=center;fillColor=#76608a;fontColor=#ffffff;strokeColor=#432D57;" vertex="1" parent="1">
          <mxGeometry x="595" y="530" width="90" height="40" as="geometry" />
        </mxCell>
        <mxCell id="Jrcfv6droCvZTq4FruAK-15" value="Contiene" style="shape=rhombus;perimeter=rhombusPerimeter;whiteSpace=wrap;html=1;align=center;fillColor=#76608a;fontColor=#ffffff;strokeColor=#432D57;" vertex="1" parent="1">
          <mxGeometry x="369" y="630" width="90" height="40" as="geometry" />
        </mxCell>
        <mxCell id="Jrcfv6droCvZTq4FruAK-16" value="Posee" style="shape=rhombus;perimeter=rhombusPerimeter;whiteSpace=wrap;html=1;align=center;fillColor=#76608a;fontColor=#ffffff;strokeColor=#432D57;" vertex="1" parent="1">
          <mxGeometry x="185" y="740" width="90" height="40" as="geometry" />
        </mxCell>
        <mxCell id="Jrcfv6droCvZTq4FruAK-17" value="Dispone" style="shape=rhombus;perimeter=rhombusPerimeter;whiteSpace=wrap;html=1;align=center;fillColor=#76608a;fontColor=#ffffff;strokeColor=#432D57;" vertex="1" parent="1">
          <mxGeometry x="450" y="830" width="90" height="40" as="geometry" />
        </mxCell>
        <mxCell id="Jrcfv6droCvZTq4FruAK-18" value="" style="endArrow=none;html=1;rounded=0;exitX=1;exitY=0.5;exitDx=0;exitDy=0;entryX=1;entryY=1;entryDx=0;entryDy=0;" edge="1" parent="1" source="Jrcfv6droCvZTq4FruAK-5" target="Jrcfv6droCvZTq4FruAK-10">
          <mxGeometry relative="1" as="geometry">
            <mxPoint x="330" y="620" as="sourcePoint" />
            <mxPoint x="490" y="620" as="targetPoint" />
          </mxGeometry>
        </mxCell>
        <mxCell id="Jrcfv6droCvZTq4FruAK-19" value="N" style="resizable=0;html=1;whiteSpace=wrap;align=right;verticalAlign=bottom;" connectable="0" vertex="1" parent="Jrcfv6droCvZTq4FruAK-18">
          <mxGeometry x="1" relative="1" as="geometry" />
        </mxCell>
        <mxCell id="Jrcfv6droCvZTq4FruAK-20" value="" style="endArrow=none;html=1;rounded=0;exitX=0;exitY=0.5;exitDx=0;exitDy=0;entryX=0;entryY=1;entryDx=0;entryDy=0;" edge="1" parent="1" source="Jrcfv6droCvZTq4FruAK-5" target="Jrcfv6droCvZTq4FruAK-10">
          <mxGeometry relative="1" as="geometry">
            <mxPoint x="320" y="575" as="sourcePoint" />
            <mxPoint x="325" y="460" as="targetPoint" />
          </mxGeometry>
        </mxCell>
        <mxCell id="Jrcfv6droCvZTq4FruAK-21" value="N" style="resizable=0;html=1;whiteSpace=wrap;align=right;verticalAlign=bottom;" connectable="0" vertex="1" parent="Jrcfv6droCvZTq4FruAK-20">
          <mxGeometry x="1" relative="1" as="geometry" />
        </mxCell>
        <mxCell id="Jrcfv6droCvZTq4FruAK-22" value="" style="endArrow=none;html=1;rounded=0;exitX=0.5;exitY=0;exitDx=0;exitDy=0;entryX=0.5;entryY=1;entryDx=0;entryDy=0;" edge="1" parent="1" source="Jrcfv6droCvZTq4FruAK-10" target="Jrcfv6droCvZTq4FruAK-13">
          <mxGeometry relative="1" as="geometry">
            <mxPoint x="330" y="585" as="sourcePoint" />
            <mxPoint x="335" y="470" as="targetPoint" />
          </mxGeometry>
        </mxCell>
        <mxCell id="Jrcfv6droCvZTq4FruAK-23" value="N" style="resizable=0;html=1;whiteSpace=wrap;align=right;verticalAlign=bottom;" connectable="0" vertex="1" parent="Jrcfv6droCvZTq4FruAK-22">
          <mxGeometry x="1" relative="1" as="geometry" />
        </mxCell>
        <mxCell id="Jrcfv6droCvZTq4FruAK-24" value="" style="endArrow=none;html=1;rounded=0;exitX=1;exitY=0.5;exitDx=0;exitDy=0;entryX=0;entryY=0.5;entryDx=0;entryDy=0;" edge="1" parent="1" source="Jrcfv6droCvZTq4FruAK-10" target="Jrcfv6droCvZTq4FruAK-12">
          <mxGeometry relative="1" as="geometry">
            <mxPoint x="340" y="595" as="sourcePoint" />
            <mxPoint x="345" y="480" as="targetPoint" />
          </mxGeometry>
        </mxCell>
        <mxCell id="Jrcfv6droCvZTq4FruAK-25" value="N" style="resizable=0;html=1;whiteSpace=wrap;align=right;verticalAlign=bottom;" connectable="0" vertex="1" parent="Jrcfv6droCvZTq4FruAK-24">
          <mxGeometry x="1" relative="1" as="geometry" />
        </mxCell>
        <mxCell id="Jrcfv6droCvZTq4FruAK-26" value="" style="endArrow=none;html=1;rounded=0;exitX=1;exitY=0.5;exitDx=0;exitDy=0;entryX=0;entryY=0.5;entryDx=0;entryDy=0;" edge="1" parent="1" source="Jrcfv6droCvZTq4FruAK-12" target="Jrcfv6droCvZTq4FruAK-6">
          <mxGeometry relative="1" as="geometry">
            <mxPoint x="350" y="605" as="sourcePoint" />
            <mxPoint x="355" y="490" as="targetPoint" />
          </mxGeometry>
        </mxCell>
        <mxCell id="Jrcfv6droCvZTq4FruAK-27" value="N" style="resizable=0;html=1;whiteSpace=wrap;align=right;verticalAlign=bottom;" connectable="0" vertex="1" parent="Jrcfv6droCvZTq4FruAK-26">
          <mxGeometry x="1" relative="1" as="geometry" />
        </mxCell>
        <mxCell id="Jrcfv6droCvZTq4FruAK-28" value="" style="endArrow=none;html=1;rounded=0;exitX=0.5;exitY=0;exitDx=0;exitDy=0;entryX=0.5;entryY=1;entryDx=0;entryDy=0;" edge="1" parent="1" source="Jrcfv6droCvZTq4FruAK-14" target="Jrcfv6droCvZTq4FruAK-6">
          <mxGeometry relative="1" as="geometry">
            <mxPoint x="360" y="615" as="sourcePoint" />
            <mxPoint x="365" y="500" as="targetPoint" />
          </mxGeometry>
        </mxCell>
        <mxCell id="Jrcfv6droCvZTq4FruAK-29" value="N" style="resizable=0;html=1;whiteSpace=wrap;align=right;verticalAlign=bottom;" connectable="0" vertex="1" parent="Jrcfv6droCvZTq4FruAK-28">
          <mxGeometry x="1" relative="1" as="geometry" />
        </mxCell>
        <mxCell id="Jrcfv6droCvZTq4FruAK-30" value="" style="endArrow=none;html=1;rounded=0;exitX=1;exitY=0.5;exitDx=0;exitDy=0;entryX=0;entryY=0.5;entryDx=0;entryDy=0;" edge="1" parent="1" source="Jrcfv6droCvZTq4FruAK-7" target="Jrcfv6droCvZTq4FruAK-14">
          <mxGeometry relative="1" as="geometry">
            <mxPoint x="370" y="625" as="sourcePoint" />
            <mxPoint x="375" y="510" as="targetPoint" />
          </mxGeometry>
        </mxCell>
        <mxCell id="Jrcfv6droCvZTq4FruAK-31" value="N" style="resizable=0;html=1;whiteSpace=wrap;align=right;verticalAlign=bottom;" connectable="0" vertex="1" parent="Jrcfv6droCvZTq4FruAK-30">
          <mxGeometry x="1" relative="1" as="geometry" />
        </mxCell>
        <mxCell id="Jrcfv6droCvZTq4FruAK-32" value="" style="endArrow=none;html=1;rounded=0;exitX=1;exitY=0.5;exitDx=0;exitDy=0;entryX=0.5;entryY=1;entryDx=0;entryDy=0;" edge="1" parent="1" source="Jrcfv6droCvZTq4FruAK-15" target="Jrcfv6droCvZTq4FruAK-7">
          <mxGeometry relative="1" as="geometry">
            <mxPoint x="380" y="635" as="sourcePoint" />
            <mxPoint x="385" y="520" as="targetPoint" />
          </mxGeometry>
        </mxCell>
        <mxCell id="Jrcfv6droCvZTq4FruAK-33" value="N" style="resizable=0;html=1;whiteSpace=wrap;align=right;verticalAlign=bottom;" connectable="0" vertex="1" parent="Jrcfv6droCvZTq4FruAK-32">
          <mxGeometry x="1" relative="1" as="geometry" />
        </mxCell>
        <mxCell id="Jrcfv6droCvZTq4FruAK-34" value="" style="endArrow=none;html=1;rounded=0;exitX=1;exitY=0.5;exitDx=0;exitDy=0;entryX=0;entryY=0.5;entryDx=0;entryDy=0;" edge="1" parent="1" source="Jrcfv6droCvZTq4FruAK-8" target="Jrcfv6droCvZTq4FruAK-15">
          <mxGeometry relative="1" as="geometry">
            <mxPoint x="390" y="645" as="sourcePoint" />
            <mxPoint x="395" y="530" as="targetPoint" />
          </mxGeometry>
        </mxCell>
        <mxCell id="Jrcfv6droCvZTq4FruAK-35" value="N" style="resizable=0;html=1;whiteSpace=wrap;align=right;verticalAlign=bottom;" connectable="0" vertex="1" parent="Jrcfv6droCvZTq4FruAK-34">
          <mxGeometry x="1" relative="1" as="geometry" />
        </mxCell>
        <mxCell id="Jrcfv6droCvZTq4FruAK-36" value="" style="endArrow=none;html=1;rounded=0;exitX=0.5;exitY=0;exitDx=0;exitDy=0;entryX=0.5;entryY=1;entryDx=0;entryDy=0;" edge="1" parent="1" source="Jrcfv6droCvZTq4FruAK-16" target="Jrcfv6droCvZTq4FruAK-8">
          <mxGeometry relative="1" as="geometry">
            <mxPoint x="400" y="655" as="sourcePoint" />
            <mxPoint x="405" y="540" as="targetPoint" />
          </mxGeometry>
        </mxCell>
        <mxCell id="Jrcfv6droCvZTq4FruAK-37" value="N" style="resizable=0;html=1;whiteSpace=wrap;align=right;verticalAlign=bottom;" connectable="0" vertex="1" parent="Jrcfv6droCvZTq4FruAK-36">
          <mxGeometry x="1" relative="1" as="geometry" />
        </mxCell>
        <mxCell id="Jrcfv6droCvZTq4FruAK-38" value="" style="endArrow=none;html=1;rounded=0;exitX=0.5;exitY=0;exitDx=0;exitDy=0;entryX=0.5;entryY=1;entryDx=0;entryDy=0;" edge="1" parent="1" source="Jrcfv6droCvZTq4FruAK-11" target="Jrcfv6droCvZTq4FruAK-16">
          <mxGeometry relative="1" as="geometry">
            <mxPoint x="410" y="665" as="sourcePoint" />
            <mxPoint x="415" y="550" as="targetPoint" />
          </mxGeometry>
        </mxCell>
        <mxCell id="Jrcfv6droCvZTq4FruAK-39" value="N" style="resizable=0;html=1;whiteSpace=wrap;align=right;verticalAlign=bottom;" connectable="0" vertex="1" parent="Jrcfv6droCvZTq4FruAK-38">
          <mxGeometry x="1" relative="1" as="geometry" />
        </mxCell>
        <mxCell id="Jrcfv6droCvZTq4FruAK-40" value="" style="endArrow=none;html=1;rounded=0;exitX=1;exitY=0.5;exitDx=0;exitDy=0;entryX=0;entryY=0.5;entryDx=0;entryDy=0;" edge="1" parent="1" source="Jrcfv6droCvZTq4FruAK-11" target="Jrcfv6droCvZTq4FruAK-17">
          <mxGeometry relative="1" as="geometry">
            <mxPoint x="420" y="675" as="sourcePoint" />
            <mxPoint x="425" y="560" as="targetPoint" />
          </mxGeometry>
        </mxCell>
        <mxCell id="Jrcfv6droCvZTq4FruAK-41" value="N" style="resizable=0;html=1;whiteSpace=wrap;align=right;verticalAlign=bottom;" connectable="0" vertex="1" parent="Jrcfv6droCvZTq4FruAK-40">
          <mxGeometry x="1" relative="1" as="geometry" />
        </mxCell>
        <mxCell id="Jrcfv6droCvZTq4FruAK-42" value="" style="endArrow=none;html=1;rounded=0;exitX=1;exitY=0.5;exitDx=0;exitDy=0;entryX=0;entryY=0.5;entryDx=0;entryDy=0;" edge="1" parent="1" source="Jrcfv6droCvZTq4FruAK-17" target="Jrcfv6droCvZTq4FruAK-9">
          <mxGeometry relative="1" as="geometry">
            <mxPoint x="430" y="685" as="sourcePoint" />
            <mxPoint x="435" y="570" as="targetPoint" />
          </mxGeometry>
        </mxCell>
        <mxCell id="Jrcfv6droCvZTq4FruAK-43" value="N" style="resizable=0;html=1;whiteSpace=wrap;align=right;verticalAlign=bottom;" connectable="0" vertex="1" parent="Jrcfv6droCvZTq4FruAK-42">
          <mxGeometry x="1" relative="1" as="geometry" />
        </mxCell>
        <mxCell id="Jrcfv6droCvZTq4FruAK-45" value="" style="endArrow=none;html=1;rounded=0;exitX=0.5;exitY=0;exitDx=0;exitDy=0;entryX=0.5;entryY=1;entryDx=0;entryDy=0;" edge="1" parent="1" source="Jrcfv6droCvZTq4FruAK-13" target="Jrcfv6droCvZTq4FruAK-2">
          <mxGeometry relative="1" as="geometry">
            <mxPoint x="440" y="695" as="sourcePoint" />
            <mxPoint x="445" y="580" as="targetPoint" />
          </mxGeometry>
        </mxCell>
        <mxCell id="Jrcfv6droCvZTq4FruAK-46" value="N" style="resizable=0;html=1;whiteSpace=wrap;align=right;verticalAlign=bottom;" connectable="0" vertex="1" parent="Jrcfv6droCvZTq4FruAK-45">
          <mxGeometry x="1" relative="1" as="geometry" />
        </mxCell>
      </root>
    </mxGraphModel>
  </diagram>
</mxfile>
